<?xml version="1.0" standalone="no"?>
<!DOCTYPE svg PUBLIC "-//W3C//DTD SVG 1.1//EN" "http://www.w3.org/Graphics/SVG/1.1/DTD/svg11.dtd">
<svg xmlns="http://www.w3.org/2000/svg" viewBox="0 0 256.0 256.0">
<path stroke="none" fill="#000000" d="M1.25977 1.25977C-2.86034 5.37988 0 22.3776 0 28L0 104L0 215L0 243C0.000346557 245.806 -1.08286 251.84 0.821652 254.178C3.50492 257.473 11.1961 256 15 256L56 256L204 256L241 256C244.434 256 252.078 257.403 254.74 254.74C258.86 250.62 256 233.622 256 228L256 152L256 41L256 13C256 10.1942 257.083 4.16045 255.178 1.82166C252.495 -1.47345 244.804 0.000350952 241 0L200 0L52 0L15 0C11.5655 0.000305176 3.92207 -1.40253 1.25977 1.25977z"/>
<path stroke="none" fill="#5C5816" d="M12.2841 10.2598C6.89519 14.4048 9.00014 24.9452 9 31L9 89C9 94.3903 6.70954 106.738 10.8217 110.834C15.824 115.817 24.6058 110.395 29.9999 113.822C35.4695 117.296 38.7622 124.03 44.1766 127.063C55.3956 133.348 68.6771 139.238 72.7938 153.001C75.6739 162.63 73.9749 180.753 70.8765 190C69.0005 195.598 61.5222 199.344 58.2193 204.136C52.5966 212.294 54.4982 220.945 43 225.142C37.6449 227.096 27.2872 224.892 22.0404 223.26C18.074 222.025 16.0889 217.048 11.4829 218.408C7.46389 219.594 7.66463 241.548 9.50146 244.675C13.911 252.183 31.2689 248.023 39 248C63.6661 247.926 88.3337 248 113 248C119.967 248 135.678 250.966 141.635 247.178C145.821 244.516 144.038 239.455 146.939 236C154.467 227.035 164.767 214.585 178 216.608C183.738 217.485 186.723 222.458 192.078 223.852C198.364 225.489 209.598 222.558 214.635 226.94C220.32 231.886 213.714 241.965 217.829 245.474C222.75 249.669 240.793 252.223 246.314 246.958C251.205 242.293 248.023 229.254 248 223C247.92 200.667 248 178.333 248 156L248 92C248 86.1214 250.385 73.2974 246.616 68.4236C243.06 63.8248 237.008 65.5608 232 64.7825C224.786 63.6613 208.559 61.0441 203.604 55.3959C197.928 48.9251 204.042 39.4791 201.635 32.0075C199.317 24.8123 188.47 14.5376 181.783 10.9321C171.938 5.62378 154.03 9 143 9L52 9L24 9C20.6815 9.00119 15.1123 8.08437 12.2841 10.2598z"/>
<path stroke="none" fill="#000000" d="M59 24.5081C43.8158 27.2011 37.9992 45.3944 40.7246 59C42.0404 65.5683 52.639 75.7534 58.2174 79.1033C71.5011 87.0804 81.3087 78.1161 92.823 73.3959C98.7607 70.9618 109.619 72.8365 116 73.0186C122.397 73.2011 132.961 76.3951 138.933 73.2778C145.927 69.6264 149.182 47.5969 142.532 42.2598C137.627 38.3231 128.593 42.6583 123.003 40.6106C117.952 38.7605 113.217 33.4237 107.957 32.7801C99.0989 31.6963 89.8681 34.3214 81 32.532C72.5307 30.8231 68.737 22.7812 59 24.5081M132 104.489C125.985 105.413 123.162 108.714 117.864 110.822C107.682 114.875 94.1332 118.712 96.8244 132.96C98.5251 141.964 114.062 142.764 115.292 152C116.029 157.532 110.283 158.931 107.599 162.497C104.697 166.352 103.12 173.203 104.398 178C109.893 198.638 131.869 193.405 148 193C154.727 192.831 163.525 194.628 170 192.713C178.921 190.074 185.615 182.519 190.749 175C192.894 171.858 191.612 167.464 193.94 164.258C196.815 160.297 201.717 157.072 206 154.851C208.647 153.478 213.448 153.519 215.06 150.539C217.737 145.591 216.005 141.314 216.214 136C216.65 124.921 219.136 115.121 208.992 107.424C193.642 95.7774 179.62 115.162 164 112.948C152.342 111.296 145.202 102.463 132 104.489z"/>
</svg>
