<?xml version="1.0" encoding="UTF-8" standalone="no"?>
<!-- Created with Inkscape (http://www.inkscape.org/) -->

<svg xmlns:dc="http://purl.org/dc/elements/1.1/" xmlns:cc="http://creativecommons.org/ns#" xmlns:rdf="http://www.w3.org/1999/02/22-rdf-syntax-ns#" xmlns:svg="http://www.w3.org/2000/svg" xmlns="http://www.w3.org/2000/svg" xmlns:xlink="http://www.w3.org/1999/xlink" xmlns:sodipodi="http://sodipodi.sourceforge.net/DTD/sodipodi-0.dtd" xmlns:inkscape="http://www.inkscape.org/namespaces/inkscape" width="120" height="120" id="svg1482" version="1.1" inkscape:version="0.48+devel r10638" sodipodi:docname="face-sick.svg">
  <defs id="defs1484">
    <radialGradient inkscape:collect="always" xlink:href="#linearGradient7039" id="radialGradient4797" gradientUnits="userSpaceOnUse" gradientTransform="matrix(1.756559,-0.0254291,0.027451,1.896221,-242.9698,-144.6942)" cx="314.9688" cy="170.3861" fx="314.9688" fy="170.3861" r="8.625591" />
    <linearGradient inkscape:collect="always" id="linearGradient7039">
      <stop style="stop-color:#ffffff;stop-opacity:1;" offset="0" id="stop7041" />
      <stop style="stop-color:#ffffff;stop-opacity:0;" offset="1" id="stop7043" />
    </linearGradient>
    <linearGradient id="linearGradient6832-0">
      <stop id="stop6834-1" offset="0" style="stop-color:#729fcf;stop-opacity:1;" />
      <stop style="stop-color:#35689e;stop-opacity:1" offset="0.1656563" id="stop6836-5" />
      <stop id="stop6838-4" offset="0.62931406" style="stop-color:#729fcf;stop-opacity:1;" />
      <stop id="stop6840-4" offset="1" style="stop-color:#729fcf;stop-opacity:0" />
    </linearGradient>
    <linearGradient id="linearGradient8198-0">
      <stop id="stop8200-0" offset="0" style="stop-color:#000000;stop-opacity:1" />
      <stop id="stop8202-3" offset="1" style="stop-color:#000000;stop-opacity:0" />
    </linearGradient>
    <linearGradient id="linearGradient8143-5">
      <stop id="stop8145-4" offset="0" style="stop-color:#ef2929;stop-opacity:1;" />
      <stop id="stop8147-3" offset="1" style="stop-color:#f89898;stop-opacity:1;" />
    </linearGradient>
    <radialGradient inkscape:collect="always" xlink:href="#linearGradient7039-0" id="radialGradient7764" gradientUnits="userSpaceOnUse" gradientTransform="matrix(1.756559,-0.0254291,0.027451,1.896221,-242.9698,-144.6942)" cx="314.9688" cy="170.3861" fx="314.9688" fy="170.3861" r="8.625591" />
    <linearGradient inkscape:collect="always" id="linearGradient7039-0">
      <stop style="stop-color:#ffffff;stop-opacity:1;" offset="0" id="stop7041-7" />
      <stop style="stop-color:#ffffff;stop-opacity:0;" offset="1" id="stop7043-3" />
    </linearGradient>
    <radialGradient inkscape:collect="always" xlink:href="#linearGradient7039-4" id="radialGradient8305" gradientUnits="userSpaceOnUse" gradientTransform="matrix(1.756559,-0.0254291,0.027451,1.896221,-242.9698,-144.6942)" cx="314.9688" cy="170.3861" fx="314.9688" fy="170.3861" r="8.625591" />
    <linearGradient inkscape:collect="always" id="linearGradient7039-4">
      <stop style="stop-color:#ffffff;stop-opacity:1;" offset="0" id="stop7041-9" />
      <stop style="stop-color:#ffffff;stop-opacity:0;" offset="1" id="stop7043-6" />
    </linearGradient>
    <linearGradient id="linearGradient3355">
      <stop id="stop3357" offset="0" style="stop-color:#ffffff;stop-opacity:1" />
      <stop id="stop3363" offset="0.45783132" style="stop-color:#ffffff;stop-opacity:1;" />
      <stop id="stop3359" offset="1" style="stop-color:#d3d7cf;stop-opacity:1" />
    </linearGradient>
    <filter style="color-interpolation-filters:sRGB" inkscape:collect="always" id="filter6552" x="-0.08908819" width="1.178176" y="-0.2648889" height="1.529778">
      <feGaussianBlur inkscape:collect="always" stdDeviation="0.51736111" id="feGaussianBlur6554" />
    </filter>
    <radialGradient inkscape:collect="always" xlink:href="#linearGradient5629" id="radialGradient8199" gradientUnits="userSpaceOnUse" gradientTransform="matrix(1,0,0,0.3363229,0,122.9254)" cx="314.0312" cy="185.2188" fx="314.0312" fy="185.2188" r="6.96875" />
    <linearGradient inkscape:collect="always" id="linearGradient5629">
      <stop style="stop-color:#000000;stop-opacity:1;" offset="0" id="stop5631" />
      <stop style="stop-color:#000000;stop-opacity:0;" offset="1" id="stop5633" />
    </linearGradient>
    <filter style="color-interpolation-filters:sRGB" inkscape:collect="always" id="filter5677" x="-0.09432867" width="1.188657" y="-0.2804706" height="1.560941">
      <feGaussianBlur inkscape:collect="always" stdDeviation="0.54779412" id="feGaussianBlur5679" />
    </filter>
    <radialGradient inkscape:collect="always" xlink:href="#linearGradient7083" id="radialGradient8201" gradientUnits="userSpaceOnUse" gradientTransform="matrix(1.02752,7.148562e-7,-8.579881e-7,1.233255,-8.667909,-40.21137)" cx="314.9688" cy="174.4436" fx="314.9688" fy="174.4436" r="9.03125" />
    <linearGradient inkscape:collect="always" id="linearGradient7083">
      <stop style="stop-color:#ffed50;stop-opacity:1" offset="0" id="stop7085" />
      <stop id="stop7087" offset="0.82689852" style="stop-color:#e16f00;stop-opacity:1" />
      <stop style="stop-color:#8e5502;stop-opacity:1" offset="1" id="stop7089" />
    </linearGradient>
    <linearGradient inkscape:collect="always" xlink:href="#linearGradient6936" id="linearGradient8203" gradientUnits="userSpaceOnUse" x1="311.2578" y1="171.4234" x2="314.9688" y2="185.4777" />
    <linearGradient inkscape:collect="always" id="linearGradient6936">
      <stop style="stop-color:#a0743c;stop-opacity:1;" offset="0" id="stop6938" />
      <stop style="stop-color:#503a1e;stop-opacity:1" offset="1" id="stop6940" />
    </linearGradient>
    <filter style="color-interpolation-filters:sRGB" inkscape:collect="always" id="filter5832" x="-0.4376471" width="1.875294" y="-0.4376471" height="1.875294">
      <feGaussianBlur inkscape:collect="always" stdDeviation="0.79779412" id="feGaussianBlur5834" />
    </filter>
    <radialGradient inkscape:collect="always" xlink:href="#linearGradient6005" id="radialGradient8205" gradientUnits="userSpaceOnUse" gradientTransform="matrix(1,0,0,0.5796531,0,80.58512)" cx="140.1935" cy="273.6971" fx="140.1935" fy="273.6971" r="81.98608" />
    <linearGradient inkscape:collect="always" id="linearGradient6005">
      <stop style="stop-color:#ffffff;stop-opacity:1;" offset="0" id="stop6007" />
      <stop style="stop-color:#ffffff;stop-opacity:0;" offset="1" id="stop6009" />
    </linearGradient>
    <filter style="color-interpolation-filters:sRGB" inkscape:collect="always" id="filter6049">
      <feGaussianBlur inkscape:collect="always" stdDeviation="1.5641252" id="feGaussianBlur6051" />
    </filter>
    <radialGradient inkscape:collect="always" xlink:href="#linearGradient6329" id="radialGradient8207" gradientUnits="userSpaceOnUse" gradientTransform="matrix(0.1311886,0,0,0.0578224,295.5194,168.1579)" cx="141.5781" cy="30.17935" fx="141.5781" fy="30.17935" r="90.82812" />
    <linearGradient inkscape:collect="always" id="linearGradient6329">
      <stop style="stop-color:#ffffff;stop-opacity:1;" offset="0" id="stop6331" />
      <stop style="stop-color:#ffffff;stop-opacity:0;" offset="1" id="stop6333" />
    </linearGradient>
    <filter style="color-interpolation-filters:sRGB" inkscape:collect="always" id="filter6365" x="-0.09187445" width="1.183749" y="-0.2084463" height="1.416893">
      <feGaussianBlur inkscape:collect="always" stdDeviation="0.50811126" id="feGaussianBlur6367" />
    </filter>
    <radialGradient inkscape:collect="always" xlink:href="#linearGradient7039-8" id="radialGradient8209" gradientUnits="userSpaceOnUse" gradientTransform="matrix(1.756559,-0.0254291,0.027451,1.896221,-242.9698,-144.6942)" cx="314.9688" cy="170.3861" fx="314.9688" fy="170.3861" r="8.625591" />
    <linearGradient inkscape:collect="always" id="linearGradient7039-8">
      <stop style="stop-color:#ffffff;stop-opacity:1;" offset="0" id="stop7041-2" />
      <stop style="stop-color:#ffffff;stop-opacity:0;" offset="1" id="stop7043-1" />
    </linearGradient>
    <radialGradient inkscape:collect="always" xlink:href="#linearGradient9530" id="radialGradient9602" gradientUnits="userSpaceOnUse" gradientTransform="matrix(1.04377,0,0,0.5753889,-14.09914,31.50344)" cx="322.1205" cy="69.60326" fx="322.1205" fy="69.60326" r="9.995485" />
    <linearGradient inkscape:collect="always" id="linearGradient9530">
      <stop id="stop9534" offset="0" style="stop-color:#000000;stop-opacity:0;" />
      <stop id="stop9532" offset="1" style="stop-color:#000000;stop-opacity:1;" />
    </linearGradient>
    <filter style="color-interpolation-filters:sRGB" inkscape:collect="always" id="filter9576" x="-0.0808746" width="1.161749" y="-0.1532786" height="1.306557">
      <feGaussianBlur inkscape:collect="always" stdDeviation="0.63995297" id="feGaussianBlur9578" />
    </filter>
    <radialGradient inkscape:collect="always" xlink:href="#linearGradient7838-8" id="radialGradient9604" gradientUnits="userSpaceOnUse" gradientTransform="matrix(0.1958184,-0.0020792,-6.117178e-4,0.2601574,291.7374,35.07732)" cx="188.4341" cy="117.016" fx="188.4341" fy="117.016" r="48.76109" />
    <linearGradient inkscape:collect="always" id="linearGradient7838-8">
      <stop style="stop-color:#838383;stop-opacity:1" offset="0" id="stop7840-1" />
      <stop style="stop-color:#000000;stop-opacity:0.89999998" offset="1" id="stop7842-7" />
    </linearGradient>
    <radialGradient inkscape:collect="always" xlink:href="#linearGradient9249" id="radialGradient9606" gradientUnits="userSpaceOnUse" gradientTransform="matrix(1,0,0,0.2515827,0,274.7467)" cx="331.5312" cy="360.3961" fx="331.5312" fy="360.3961" r="8.53125" />
    <linearGradient inkscape:collect="always" id="linearGradient9249">
      <stop style="stop-color:#ffffff;stop-opacity:1;" offset="0" id="stop9251" />
      <stop style="stop-color:#ffffff;stop-opacity:0;" offset="1" id="stop9253" />
    </linearGradient>
    <radialGradient inkscape:collect="always" xlink:href="#linearGradient9530" id="radialGradient6853" gradientUnits="userSpaceOnUse" gradientTransform="matrix(1.04377,0,0,0.5753889,-14.09914,31.50344)" cx="322.1205" cy="69.60326" fx="322.1205" fy="69.60326" r="9.995485" />
    <radialGradient inkscape:collect="always" xlink:href="#linearGradient7838-8" id="radialGradient6855" gradientUnits="userSpaceOnUse" gradientTransform="matrix(0.1958184,-0.0020792,-6.117178e-4,0.2601574,291.7374,35.07732)" cx="188.4341" cy="117.016" fx="188.4341" fy="117.016" r="48.76109" />
    <radialGradient inkscape:collect="always" xlink:href="#linearGradient9249" id="radialGradient6857" gradientUnits="userSpaceOnUse" gradientTransform="matrix(1,0,0,0.2515827,0,274.7467)" cx="331.5312" cy="360.3961" fx="331.5312" fy="360.3961" r="8.53125" />
    <radialGradient inkscape:collect="always" xlink:href="#linearGradient5925-6-1-8" id="radialGradient9642-2" gradientUnits="userSpaceOnUse" gradientTransform="matrix(0.9973105,-0.0732928,0.0524191,0.7132777,-9.012464,72.34055)" cx="314.1078" cy="187.6297" fx="314.1078" fy="187.6297" r="5.843765" />
    <linearGradient inkscape:collect="always" id="linearGradient5925-6-1-8">
      <stop style="stop-color:#a45d03;stop-opacity:1" offset="0" id="stop5927-6-3-5" />
      <stop style="stop-color:#eca222;stop-opacity:0" offset="1" id="stop5929-67-2-5" />
    </linearGradient>
    <filter style="color-interpolation-filters:sRGB" inkscape:collect="always" id="filter5945-6-9-6" x="-0.09365869" width="1.187317" y="-0.2704212" height="1.540843">
      <feGaussianBlur inkscape:collect="always" stdDeviation="0.45609948" id="feGaussianBlur5947-86-7-6" />
    </filter>
    <radialGradient inkscape:collect="always" xlink:href="#linearGradient5905-9-2-7" id="radialGradient9644-6" gradientUnits="userSpaceOnUse" gradientTransform="matrix(1.435089,1.185236e-6,-3.293661e-7,0.3987978,-136.5956,107.7624)" cx="313.9547" cy="179.5515" fx="313.9547" fy="179.5515" r="5.843765" />
    <linearGradient inkscape:collect="always" id="linearGradient5905-9-2-7">
      <stop style="stop-color:#000000;stop-opacity:1;" offset="0" id="stop5907-1-8-2" />
      <stop style="stop-color:#000000;stop-opacity:0;" offset="1" id="stop5909-0-1-8" />
    </linearGradient>
    <radialGradient inkscape:collect="always" xlink:href="#linearGradient5915-1-1-2" id="radialGradient9646-9" gradientUnits="userSpaceOnUse" gradientTransform="matrix(1.224234,0,0,0.3101039,-70.39675,123.7609)" cx="314.1516" cy="185.4751" fx="314.1516" fy="185.4751" r="5.843765" />
    <linearGradient inkscape:collect="always" id="linearGradient5915-1-1-2">
      <stop style="stop-color:#ffffff;stop-opacity:1;" offset="0" id="stop5917-3-8-3" />
      <stop style="stop-color:#ffffff;stop-opacity:0;" offset="1" id="stop5919-9-1-7" />
    </linearGradient>
    <radialGradient inkscape:collect="always" xlink:href="#linearGradient8877-5-6" id="radialGradient8616" gradientUnits="userSpaceOnUse" gradientTransform="matrix(1.198964,0,0,0.3897969,160.9244,-1754.699)" cx="191.1841" cy="478.0721" fx="191.1841" fy="478.0721" r="36" />
    <linearGradient inkscape:collect="always" id="linearGradient8877-5-6">
      <stop style="stop-color:#ffffff;stop-opacity:1;" offset="0" id="stop8879-7-3" />
      <stop style="stop-color:#ffffff;stop-opacity:0;" offset="1" id="stop8881-8-9" />
    </linearGradient>
    <radialGradient r="36" fy="478.0721" fx="191.1841" cy="478.0721" cx="191.1841" gradientTransform="matrix(1.198964,0,0,0.3897969,160.9244,-1754.699)" gradientUnits="userSpaceOnUse" id="radialGradient9300" xlink:href="#linearGradient8877-5-6" inkscape:collect="always" />
  </defs>
  <sodipodi:namedview id="base" pagecolor="#13ff3e" bordercolor="#666666" borderopacity="1.0" inkscape:pageopacity="0.5176471" inkscape:pageshadow="2" inkscape:zoom="0.4525483" inkscape:cx="208.9782" inkscape:cy="459.3739" inkscape:document-units="px" inkscape:current-layer="layer1" showgrid="true" fit-margin-top="0" fit-margin-left="0" fit-margin-right="0" fit-margin-bottom="0" inkscape:window-width="1600" inkscape:window-height="878" inkscape:window-x="-8" inkscape:window-y="-8" inkscape:window-maximized="1" objecttolerance="10000" guidetolerance="10000" />
  <metadata id="metadata1487">
    <rdf:RDF>
      <cc:Work rdf:about="">
        <dc:format>image/svg+xml</dc:format>
        <dc:type rdf:resource="http://purl.org/dc/dcmitype/StillImage" />
        <dc:title></dc:title>
      </cc:Work>
    </rdf:RDF>
  </metadata>
  <g inkscape:label="Layer 1" inkscape:groupmode="layer" id="layer1" transform="translate(-269.5819,-493.088)">
    <g transform="translate(-40.284,2111.948)" style="display:inline;enable-background:new" id="g9141">
      <g style="display:inline;enable-background:new" transform="matrix(5.890031,0,0,5.890031,-1483.559,-2609.883)" id="use15501">
        <g style="opacity:0.635468" id="g8181" transform="translate(0.4377325,0.4775263)">
          <path sodipodi:type="arc" style="fill:#000000;fill-opacity:1;fill-rule:nonzero;stroke:none;stroke-width:1;marker:none;visibility:visible;display:inline;overflow:visible;filter:url(#filter6552);enable-background:accumulate" id="path8183" sodipodi:cx="314.0312" sodipodi:cy="185.2188" sodipodi:rx="6.96875" sodipodi:ry="2.34375" d="M 320.9999,185.2188 C 320.9999,186.5132 317.8799,187.5625 314.0312,187.5625 310.1825,187.5625 307.0624,186.5132 307.0624,185.2188 307.0624,183.9244 310.1825,182.875 314.0312,182.875 317.8799,182.875 320.9999,183.9244 320.9999,185.2188 z" transform="matrix(0.8322444,0,0,0.8322444,52.68053,31.15891)" />
          <path transform="matrix(1.24,0,0,1.24,-75.3675,-44.49637)" d="M 320.9999,185.2188 C 320.9999,186.5132 317.8799,187.5625 314.0312,187.5625 310.1825,187.5625 307.0624,186.5132 307.0624,185.2188 307.0624,183.9244 310.1825,182.875 314.0312,182.875 317.8799,182.875 320.9999,183.9244 320.9999,185.2188 z" sodipodi:ry="2.34375" sodipodi:rx="6.96875" sodipodi:cy="185.2188" sodipodi:cx="314.0312" id="path8185" style="fill:url(#radialGradient8199);fill-opacity:1;fill-rule:nonzero;stroke:none;stroke-width:1;marker:none;visibility:visible;display:inline;overflow:visible;filter:url(#filter5677);enable-background:accumulate" sodipodi:type="arc" />
        </g>
        <path d="M 323.5001,177.8438 C 323.5001,182.5555 319.6805,186.375 314.9688,186.375 310.2571,186.375 306.4376,182.5555 306.4376,177.8438 306.4376,173.1321 310.2571,169.3125 314.9688,169.3125 319.6805,169.3125 323.5001,173.1321 323.5001,177.8438 z" sodipodi:ry="8.53125" sodipodi:rx="8.53125" sodipodi:cy="177.8438" sodipodi:cx="314.9688" id="path8187" style="fill:url(#radialGradient8201);fill-opacity:1;fill-rule:nonzero;stroke:url(#linearGradient8203);stroke-width:0.6053134;stroke-linecap:round;stroke-linejoin:round;stroke-miterlimit:4;stroke-opacity:1;stroke-dasharray:none;stroke-dashoffset:0;marker:none;visibility:visible;display:inline;overflow:visible;enable-background:accumulate" sodipodi:type="arc" transform="matrix(1.053022,0,0,1.05069,-17.2966,-8.676543)" />
        <path transform="matrix(1.4,0,0,1.4,-125.7998,-72.34704)" d="M 316.6875,175.375 C 316.6875,176.5831 315.7081,177.5625 314.5,177.5625 313.2919,177.5625 312.3125,176.5831 312.3125,175.375 312.3125,174.1669 313.2919,173.1875 314.5,173.1875 315.7081,173.1875 316.6875,174.1669 316.6875,175.375 z" sodipodi:ry="2.1875" sodipodi:rx="2.1875" sodipodi:cy="175.375" sodipodi:cx="314.5" id="path8189" style="fill:#fcffcd;fill-opacity:1;fill-rule:nonzero;stroke:none;stroke-width:1;marker:none;visibility:visible;display:inline;overflow:visible;filter:url(#filter5832);enable-background:accumulate" sodipodi:type="arc" />
        <path id="path8191" transform="matrix(0.0949941,0,0,0.0875215,301.0918,165.8504)" d="M 58.21875,144.1875 C 56.61959,271.1507 224.4504,267.2352 222.1562,154.4062 219.9885,261.5024 60.6032,264.8645 58.25,144.1875 L 58.21875,144.1875 z" style="opacity:0.3990148;fill:url(#radialGradient8205);fill-opacity:1;fill-rule:evenodd;stroke:none;filter:url(#filter6049)" inkscape:connector-curvature="0" />
        <path transform="matrix(0.8944984,0,0,0.9143922,33.57504,14.99931)" id="path8193" d="M 314.0939,169.6314 C 310.4307,169.6314 307.4562,171.6697 307.4562,174.1799 307.4562,174.6324 307.5549,175.0691 307.7348,175.4817 308.5524,173.6051 311.0907,172.235 314.0939,172.235 317.0972,172.235 319.6356,173.6051 320.4531,175.4817 320.633,175.0691 320.7294,174.6324 320.7294,174.1799 320.7294,171.6697 317.7573,169.6314 314.0939,169.6314 z" style="fill:url(#radialGradient8207);fill-opacity:1;fill-rule:nonzero;stroke:none;stroke-width:0.0846138;marker:none;visibility:visible;display:inline;overflow:visible;filter:url(#filter6365);enable-background:accumulate" inkscape:connector-curvature="0" />
        <g style="opacity:0.2463054" transform="matrix(1.977991,0,0,2.44199,-306.6388,-261.4163)" id="g8195" />
        <path sodipodi:type="inkscape:offset" inkscape:radius="-0.1187437" inkscape:original="M 313.9375 169.3438 C 309.08 169.3438 305.1562 173.2782 305.1562 178.125 C 305.1562 182.9718 309.08 186.9062 313.9375 186.9062 C 318.795 186.9062 322.75 182.9718 322.75 178.125 C 322.75 173.2782 318.795 169.3438 313.9375 169.3438 z " xlink:href="#path6824" style="fill:none;stroke:url(#radialGradient8209);stroke-width:0.6443272;stroke-linecap:round;stroke-linejoin:round;stroke-miterlimit:4;stroke-opacity:1;stroke-dasharray:none;stroke-dashoffset:0;marker:none;visibility:visible;display:inline;overflow:visible;enable-background:accumulate" id="path8197" d="M 313.9375,169.4688 C 309.1441,169.4688 305.2812,173.3423 305.2812,178.125 305.2812,182.9077 309.1441,186.7812 313.9375,186.7812 318.7309,186.7812 322.625,182.9072 322.625,178.125 322.625,173.3428 318.7309,169.4688 313.9375,169.4688 z" transform="matrix(0.9881654,0,0,0.9881654,4.134715,2.165056)" inkscape:href="#path6824" />
      </g>
      <g id="g9586" transform="matrix(2.751976,0,0,2.751976,-511.289,-1772.071)">
        <g id="g9588" transform="translate(-1,0)">
          <path inkscape:connector-curvature="0" style="opacity:0.4365672;color:#000000;fill:url(#radialGradient9602);fill-opacity:1;fill-rule:evenodd;stroke:none;stroke-width:1;marker:none;visibility:visible;display:inline;overflow:visible;filter:url(#filter9576);enable-background:new" d="M 321.789,70.68313 C 327.9907,66.18387 337.925,64.47591 340.2731,69.71629 340.5208,70.2692 340.578,70.6391 340.3365,71.35011 338.5203,76.69758 326.5599,79.00448 321.8255,72.70223 321.4832,72.24652 321.3237,71.14302 321.789,70.68313 L 321.789,70.68313 z" id="path9590" sodipodi:nodetypes="cssssc" />
          <path inkscape:connector-curvature="0" sodipodi:nodetypes="cssssc" id="path9592" d="M 321.789,68.68313 C 327.9907,64.18387 337.925,62.47591 340.2731,67.71629 340.5208,68.2692 340.578,68.6391 340.3365,69.35011 338.5203,74.69758 326.5599,77.00448 321.8255,70.70223 321.4832,70.24652 321.3237,69.14302 321.789,68.68313 L 321.789,68.68313 z" style="opacity:0.8097015;color:#000000;fill:url(#radialGradient9604);fill-opacity:1;fill-rule:evenodd;stroke:#0f1112;stroke-width:1.3627274;stroke-opacity:1;marker:none;visibility:visible;display:inline;overflow:visible;enable-background:new" />
          <path inkscape:connector-curvature="0" style="color:#000000;fill:url(#radialGradient9606);fill-opacity:1;fill-rule:evenodd;stroke:none;stroke-width:1;marker:none;visibility:visible;display:inline;overflow:visible;enable-background:new" d="M 322.9375,369.25 C 323.8125,367.6875 330.0367,365.3227 333.25,365.0625 338.5285,364.6351 340,367.5 340,367.5 340,367.5 337.9269,365.6673 333.125,366.0625 330.0824,366.3129 324.1875,367.9375 322.9375,369.25 z" id="path9594" transform="translate(0,-300)" sodipodi:nodetypes="cscsc" />
        </g>
        <g id="use9596" transform="matrix(-1,0,0,1,639.9641,0)">
          <path inkscape:connector-curvature="0" style="opacity:0.4365672;color:#000000;fill:url(#radialGradient6853);fill-opacity:1;fill-rule:evenodd;stroke:none;stroke-width:1;marker:none;visibility:visible;display:inline;overflow:visible;filter:url(#filter9576);enable-background:new" d="M 321.789,70.68313 C 327.9907,66.18387 337.925,64.47591 340.2731,69.71629 340.5208,70.2692 340.578,70.6391 340.3365,71.35011 338.5203,76.69758 326.5599,79.00448 321.8255,72.70223 321.4832,72.24652 321.3237,71.14302 321.789,70.68313 L 321.789,70.68313 z" id="path6847" sodipodi:nodetypes="cssssc" />
          <path inkscape:connector-curvature="0" sodipodi:nodetypes="cssssc" id="path6849" d="M 321.789,68.68313 C 327.9907,64.18387 337.925,62.47591 340.2731,67.71629 340.5208,68.2692 340.578,68.6391 340.3365,69.35011 338.5203,74.69758 326.5599,77.00448 321.8255,70.70223 321.4832,70.24652 321.3237,69.14302 321.789,68.68313 L 321.789,68.68313 z" style="opacity:0.8097015;color:#000000;fill:url(#radialGradient6855);fill-opacity:1;fill-rule:evenodd;stroke:#0f1112;stroke-width:1;stroke-opacity:1;marker:none;visibility:visible;display:inline;overflow:visible;enable-background:new" />
          <path inkscape:connector-curvature="0" style="color:#000000;fill:url(#radialGradient6857);fill-opacity:1;fill-rule:evenodd;stroke:none;stroke-width:1;marker:none;visibility:visible;display:inline;overflow:visible;enable-background:new" d="M 322.9375,369.25 C 323.8125,367.6875 330.0367,365.3227 333.25,365.0625 338.5285,364.6351 340,367.5 340,367.5 340,367.5 337.9269,365.6673 333.125,366.0625 330.0824,366.3129 324.1875,367.9375 322.9375,369.25 z" id="path6851" transform="translate(0,-300)" sodipodi:nodetypes="cscsc" />
        </g>
        <path inkscape:connector-curvature="0" style="color:#000000;fill:none;stroke:#888a85;stroke-width:1.3627274;stroke-opacity:1;marker:none;visibility:visible;display:inline;overflow:visible;enable-background:new" d="M 314.5,69.5 316.6875,69.5 C 316.6875,69.5 317.149,67.4375 319.1875,67.4375 321.226,67.4375 321.5625,69.4375 321.5625,69.4375 L 323.625,69.4375" id="path9598" sodipodi:nodetypes="cczcc" />
        <path inkscape:connector-curvature="0" sodipodi:nodetypes="cczcc" id="path9600" d="M 314.5,68.5625 316.6875,68.5625 C 316.6875,68.5625 317.149,66.5 319.1875,66.5 321.226,66.5 321.5625,68.5 321.5625,68.5 L 323.625,68.5" style="color:#000000;fill:none;stroke:#eeeeec;stroke-width:1.3627274;stroke-opacity:1;marker:none;visibility:visible;display:inline;overflow:visible;enable-background:new" />
      </g>
      <g transform="matrix(3.750193,0,0,3.750193,-2326.528,-966.3283)" style="display:inline;enable-background:new" id="g9608">
        <g id="g9610" style="display:inline;enable-background:new" transform="matrix(1.542495,0,0,1.764188,234.112,-472.2001)">
          <path inkscape:connector-curvature="0" style="fill:url(#radialGradient9642-2);fill-opacity:1;fill-rule:evenodd;stroke:none;filter:url(#filter5945-6-9-6)" d="M 308.089,178.5449 C 312.9084,183.2735 316.5049,181.626 319.7766,178.5449 316.0735,183.845 312.1825,184.0384 308.089,178.5449 z" id="path9612" sodipodi:nodetypes="ccc" transform="matrix(1.224234,0,0,1.224234,-70.39675,-40.44547)" />
          <path inkscape:connector-curvature="0" style="fill:url(#radialGradient9644-6);fill-opacity:1;fill-rule:evenodd;stroke:none" d="M 306.803,177.6531 C 312.4941,181.0861 317.0044,180.1349 321.1113,177.6531 316.3764,181.9794 311.6191,182.2524 306.803,177.6531 z" id="path9614" sodipodi:nodetypes="ccc" />
          <path inkscape:connector-curvature="0" sodipodi:nodetypes="ccc" id="path9616" d="M 306.803,177.6531 C 312.841,184.1903 317.1798,181.7673 321.1113,177.6531 316.3505,181.9794 311.5766,182.1927 306.803,177.6531 z" style="opacity:0.5467981;fill:url(#radialGradient9646-9);fill-opacity:1;fill-rule:evenodd;stroke:none" />
        </g>
      </g>
      <path inkscape:connector-curvature="0" sodipodi:nodetypes="cccccccccccccccccccc" d="M 401.2298,-1576.451 401.6022,-1575.519 C 403.8595,-1575.705 405.0158,-1576.623 406.3202,-1577.444 L 405.8857,-1577.63 C 404.4901,-1576.976 403.1087,-1576.299 401.2298,-1576.451 z M 376.8952,-1580.486 377.4539,-1580.92 C 385.5822,-1576.401 393.3211,-1574.357 400.4228,-1576.264 L 400.1123,-1575.147 C 388.0889,-1571.987 383.4664,-1577.258 376.8951,-1580.486 z M 401.5403,-1574.65 402.099,-1570.181 C 404.8656,-1570.782 407.604,-1571.482 410.045,-1573.222 L 406.6928,-1576.885 C 405.4215,-1575.797 403.8874,-1575.159 401.5403,-1574.65 z M 376.5848,-1580.175 374.2879,-1578.437 C 380.0333,-1570.783 389.2233,-1568.557 400.4228,-1569.498 L 400.2987,-1574.154 C 393.0539,-1571.7 385.641,-1572.584 376.5848,-1580.175 z" style="opacity:0.6567164;color:#000000;fill:url(#radialGradient9300);fill-opacity:1;fill-rule:evenodd;stroke:none;stroke-width:1;marker:none;visibility:visible;display:inline;overflow:visible;enable-background:new" id="path8614" />
    </g>
  </g>
</svg>
