<?xml version="1.0" encoding="UTF-8" standalone="no"?>
<!-- Created with Inkscape (http://www.inkscape.org/) -->

<svg xmlns:dc="http://purl.org/dc/elements/1.1/" xmlns:cc="http://creativecommons.org/ns#" xmlns:rdf="http://www.w3.org/1999/02/22-rdf-syntax-ns#" xmlns:svg="http://www.w3.org/2000/svg" xmlns="http://www.w3.org/2000/svg" xmlns:xlink="http://www.w3.org/1999/xlink" xmlns:sodipodi="http://sodipodi.sourceforge.net/DTD/sodipodi-0.dtd" xmlns:inkscape="http://www.inkscape.org/namespaces/inkscape" width="120" height="120" id="svg1482" version="1.1" inkscape:version="0.48+devel r10638" sodipodi:docname="face-raspberry.svg">
  <defs id="defs1484">
    <radialGradient inkscape:collect="always" xlink:href="#linearGradient7039" id="radialGradient4797" gradientUnits="userSpaceOnUse" gradientTransform="matrix(1.756559,-0.0254291,0.027451,1.896221,-242.9698,-144.6942)" cx="314.9688" cy="170.3861" fx="314.9688" fy="170.3861" r="8.625591" />
    <linearGradient inkscape:collect="always" id="linearGradient7039">
      <stop style="stop-color:#ffffff;stop-opacity:1;" offset="0" id="stop7041" />
      <stop style="stop-color:#ffffff;stop-opacity:0;" offset="1" id="stop7043" />
    </linearGradient>
    <linearGradient id="linearGradient6832-0">
      <stop id="stop6834-1" offset="0" style="stop-color:#729fcf;stop-opacity:1;" />
      <stop style="stop-color:#35689e;stop-opacity:1" offset="0.1656563" id="stop6836-5" />
      <stop id="stop6838-4" offset="0.62931406" style="stop-color:#729fcf;stop-opacity:1;" />
      <stop id="stop6840-4" offset="1" style="stop-color:#729fcf;stop-opacity:0" />
    </linearGradient>
    <linearGradient id="linearGradient8198-0">
      <stop id="stop8200-0" offset="0" style="stop-color:#000000;stop-opacity:1" />
      <stop id="stop8202-3" offset="1" style="stop-color:#000000;stop-opacity:0" />
    </linearGradient>
    <linearGradient id="linearGradient8143-5">
      <stop id="stop8145-4" offset="0" style="stop-color:#ef2929;stop-opacity:1;" />
      <stop id="stop8147-3" offset="1" style="stop-color:#f89898;stop-opacity:1;" />
    </linearGradient>
    <radialGradient inkscape:collect="always" xlink:href="#linearGradient12297-9" id="radialGradient11803-7" gradientUnits="userSpaceOnUse" gradientTransform="matrix(1,0,0,0.4923079,0,89.64582)" cx="142.75" cy="172.8674" fx="142.75" fy="172.8674" r="16.25" />
    <linearGradient inkscape:collect="always" id="linearGradient12297-9">
      <stop style="stop-color:#fdfcbc;stop-opacity:1;" offset="0" id="stop12299-4" />
      <stop style="stop-color:#fdfcbc;stop-opacity:0;" offset="1" id="stop12301-3" />
    </linearGradient>
    <filter style="color-interpolation-filters:sRGB" inkscape:collect="always" id="filter12325-7" x="-0.107024" width="1.214048" y="-0.08184107" height="1.163682">
      <feGaussianBlur inkscape:collect="always" stdDeviation="1.4492839" id="feGaussianBlur12327-07" />
    </filter>
    <radialGradient inkscape:collect="always" xlink:href="#linearGradient12297-9" id="radialGradient11805-0" gradientUnits="userSpaceOnUse" gradientTransform="matrix(1,0,0,0.4923079,0,89.64582)" cx="142.75" cy="172.8674" fx="142.75" fy="172.8674" r="16.25" />
    <radialGradient inkscape:collect="always" xlink:href="#linearGradient5925-55" id="radialGradient11807-0" gradientUnits="userSpaceOnUse" gradientTransform="matrix(0.9973105,-0.0732928,0.0524191,0.7132777,-9.012464,72.34055)" cx="314.034" cy="186.1122" fx="314.034" fy="186.1122" r="5.843765" />
    <linearGradient inkscape:collect="always" id="linearGradient5925-55">
      <stop style="stop-color:#a45d03;stop-opacity:1" offset="0" id="stop5927-1" />
      <stop style="stop-color:#eca222;stop-opacity:0" offset="1" id="stop5929-6" />
    </linearGradient>
    <filter style="color-interpolation-filters:sRGB" inkscape:collect="always" id="filter7264-9" x="-0.0446526" width="1.089305" y="-0.1289257" height="1.257851">
      <feGaussianBlur inkscape:collect="always" stdDeviation="0.21744944" id="feGaussianBlur7266-4" />
    </filter>
    <radialGradient inkscape:collect="always" xlink:href="#linearGradient5905-4" id="radialGradient11809-2" gradientUnits="userSpaceOnUse" gradientTransform="matrix(1.435089,1.185236e-6,-3.293661e-7,0.3987978,-136.5956,107.7624)" cx="313.9547" cy="182.6371" fx="313.9547" fy="182.6371" r="5.843765" />
    <linearGradient inkscape:collect="always" id="linearGradient5905-4">
      <stop style="stop-color:#000000;stop-opacity:1;" offset="0" id="stop5907-0" />
      <stop style="stop-color:#000000;stop-opacity:0;" offset="1" id="stop5909-4" />
    </linearGradient>
    <radialGradient inkscape:collect="always" xlink:href="#linearGradient5915-9" id="radialGradient11811-3" gradientUnits="userSpaceOnUse" gradientTransform="matrix(1.263761,0,0,0.3101039,-82.57567,123.1236)" cx="314.1516" cy="185.4751" fx="314.1516" fy="185.4751" r="5.843765" />
    <linearGradient inkscape:collect="always" id="linearGradient5915-9">
      <stop style="stop-color:#ffffff;stop-opacity:1;" offset="0" id="stop5917-5" />
      <stop style="stop-color:#ffffff;stop-opacity:0;" offset="1" id="stop5919-6" />
    </linearGradient>
    <radialGradient inkscape:collect="always" xlink:href="#linearGradient6037-24" id="radialGradient11813-1" gradientUnits="userSpaceOnUse" gradientTransform="matrix(0.3529412,0,0,0.5490197,108.6177,48.61272)" cx="172.5" cy="101.3393" fx="172.5" fy="101.3393" r="8.5" />
    <linearGradient id="linearGradient6037-24" inkscape:collect="always">
      <stop id="stop6039-7" offset="0" style="stop-color:#b3b3b3;stop-opacity:1" />
      <stop id="stop6041-6" offset="1" style="stop-color:#000000;stop-opacity:1" />
    </linearGradient>
    <radialGradient inkscape:collect="always" xlink:href="#linearGradient5898-8" id="radialGradient11815-0" gradientUnits="userSpaceOnUse" gradientTransform="matrix(0.0875215,0,0,0.0711143,301.0015,167.1734)" cx="171.6875" cy="140.9065" fx="171.6875" fy="140.9065" r="8.5" />
    <linearGradient inkscape:collect="always" id="linearGradient5898-8">
      <stop style="stop-color:#ffffff;stop-opacity:1;" offset="0" id="stop5900-9" />
      <stop style="stop-color:#ffffff;stop-opacity:0;" offset="1" id="stop5902-0" />
    </linearGradient>
    <radialGradient inkscape:collect="always" xlink:href="#linearGradient6450-5" id="radialGradient11817-9" gradientUnits="userSpaceOnUse" gradientTransform="matrix(1.395836,0.8058855,-1.439676,2.493593,94.57271,-308.2728)" cx="172.75" cy="113.1875" fx="172.75" fy="113.1875" r="7.625" />
    <linearGradient inkscape:collect="always" id="linearGradient6450-5">
      <stop style="stop-color:#fefcd6;stop-opacity:1;" offset="0" id="stop6452-3" />
      <stop style="stop-color:#fefcd6;stop-opacity:0;" offset="1" id="stop6455-7" />
    </linearGradient>
    <filter style="color-interpolation-filters:sRGB" inkscape:collect="always" id="filter6479-7" x="-0.2260814" width="1.452163" y="-0.1777045" height="1.355409">
      <feGaussianBlur inkscape:collect="always" stdDeviation="1.9984637" id="feGaussianBlur6481-0" />
    </filter>
    <radialGradient inkscape:collect="always" xlink:href="#linearGradient6037-24" id="radialGradient11819-9" gradientUnits="userSpaceOnUse" gradientTransform="matrix(0.3529412,0,0,0.5490197,108.6177,48.61272)" cx="172.5" cy="101.3393" fx="172.5" fy="101.3393" r="8.5" />
    <radialGradient inkscape:collect="always" xlink:href="#linearGradient5898-8" id="radialGradient11821-8" gradientUnits="userSpaceOnUse" gradientTransform="matrix(0.0875215,0,0,0.0711143,301.0015,167.1734)" cx="171.6875" cy="140.9065" fx="171.6875" fy="140.9065" r="8.5" />
    <radialGradient inkscape:collect="always" xlink:href="#linearGradient6450-5" id="radialGradient11823-5" gradientUnits="userSpaceOnUse" gradientTransform="matrix(1.395836,0.8058855,-1.439676,2.493593,94.57271,-308.2728)" cx="171.2121" cy="112.1305" fx="171.2121" fy="112.1305" r="7.625" />
    <linearGradient inkscape:collect="always" xlink:href="#linearGradient7162-9-14" id="linearGradient11825-5" gradientUnits="userSpaceOnUse" x1="327.8899" y1="58.82076" x2="327.8899" y2="58.1291" />
    <linearGradient inkscape:collect="always" id="linearGradient7162-9-14">
      <stop style="stop-color:#ffffff;stop-opacity:1;" offset="0" id="stop7164-4" />
      <stop style="stop-color:#ffffff;stop-opacity:0;" offset="1" id="stop7166-7" />
    </linearGradient>
    <linearGradient y2="58.1291" x2="327.8899" y1="58.82076" x1="327.8899" gradientUnits="userSpaceOnUse" id="linearGradient12578" xlink:href="#linearGradient7162-9-14" inkscape:collect="always" />
    <filter style="color-interpolation-filters:sRGB" inkscape:collect="always" id="filter6552-1" x="-0.08908819" width="1.178176" y="-0.2648889" height="1.529778">
      <feGaussianBlur inkscape:collect="always" stdDeviation="0.51736111" id="feGaussianBlur6554-6" />
    </filter>
    <radialGradient inkscape:collect="always" xlink:href="#linearGradient5629-4" id="radialGradient7754" gradientUnits="userSpaceOnUse" gradientTransform="matrix(1,0,0,0.3363229,0,122.9254)" cx="314.0312" cy="185.2188" fx="314.0312" fy="185.2188" r="6.96875" />
    <linearGradient inkscape:collect="always" id="linearGradient5629-4">
      <stop style="stop-color:#000000;stop-opacity:1;" offset="0" id="stop5631-0" />
      <stop style="stop-color:#000000;stop-opacity:0;" offset="1" id="stop5633-6" />
    </linearGradient>
    <filter style="color-interpolation-filters:sRGB" inkscape:collect="always" id="filter5677-1" x="-0.09432867" width="1.188657" y="-0.2804706" height="1.560941">
      <feGaussianBlur inkscape:collect="always" stdDeviation="0.54779412" id="feGaussianBlur5679-8" />
    </filter>
    <radialGradient inkscape:collect="always" xlink:href="#linearGradient7083-9" id="radialGradient7756" gradientUnits="userSpaceOnUse" gradientTransform="matrix(1.02752,7.148562e-7,-8.579881e-7,1.233255,-8.667909,-40.21137)" cx="314.9688" cy="174.4436" fx="314.9688" fy="174.4436" r="9.03125" />
    <linearGradient inkscape:collect="always" id="linearGradient7083-9">
      <stop style="stop-color:#ffed50;stop-opacity:1" offset="0" id="stop7085-8" />
      <stop id="stop7087-4" offset="0.82689852" style="stop-color:#e16f00;stop-opacity:1" />
      <stop style="stop-color:#8e5502;stop-opacity:1" offset="1" id="stop7089-1" />
    </linearGradient>
    <linearGradient inkscape:collect="always" xlink:href="#linearGradient6936-4" id="linearGradient7758" gradientUnits="userSpaceOnUse" x1="311.2578" y1="171.4234" x2="314.9688" y2="185.4777" />
    <linearGradient inkscape:collect="always" id="linearGradient6936-4">
      <stop style="stop-color:#a0743c;stop-opacity:1;" offset="0" id="stop6938-3" />
      <stop style="stop-color:#503a1e;stop-opacity:1" offset="1" id="stop6940-9" />
    </linearGradient>
    <filter style="color-interpolation-filters:sRGB" inkscape:collect="always" id="filter5832-8" x="-0.4376471" width="1.875294" y="-0.4376471" height="1.875294">
      <feGaussianBlur inkscape:collect="always" stdDeviation="0.79779412" id="feGaussianBlur5834-8" />
    </filter>
    <radialGradient inkscape:collect="always" xlink:href="#linearGradient6005-0" id="radialGradient7760" gradientUnits="userSpaceOnUse" gradientTransform="matrix(1,0,0,0.5796531,0,80.58512)" cx="140.1935" cy="273.6971" fx="140.1935" fy="273.6971" r="81.98608" />
    <linearGradient inkscape:collect="always" id="linearGradient6005-0">
      <stop style="stop-color:#ffffff;stop-opacity:1;" offset="0" id="stop6007-8" />
      <stop style="stop-color:#ffffff;stop-opacity:0;" offset="1" id="stop6009-7" />
    </linearGradient>
    <filter style="color-interpolation-filters:sRGB" inkscape:collect="always" id="filter6049-7">
      <feGaussianBlur inkscape:collect="always" stdDeviation="1.5641252" id="feGaussianBlur6051-8" />
    </filter>
    <radialGradient inkscape:collect="always" xlink:href="#linearGradient6329-3" id="radialGradient7762" gradientUnits="userSpaceOnUse" gradientTransform="matrix(0.1311886,0,0,0.0578224,295.5194,168.1579)" cx="141.5781" cy="30.17935" fx="141.5781" fy="30.17935" r="90.82812" />
    <linearGradient inkscape:collect="always" id="linearGradient6329-3">
      <stop style="stop-color:#ffffff;stop-opacity:1;" offset="0" id="stop6331-8" />
      <stop style="stop-color:#ffffff;stop-opacity:0;" offset="1" id="stop6333-3" />
    </linearGradient>
    <filter style="color-interpolation-filters:sRGB" inkscape:collect="always" id="filter6365-7" x="-0.09187445" width="1.183749" y="-0.2084463" height="1.416893">
      <feGaussianBlur inkscape:collect="always" stdDeviation="0.50811126" id="feGaussianBlur6367-1" />
    </filter>
    <radialGradient inkscape:collect="always" xlink:href="#linearGradient7039-0" id="radialGradient7764" gradientUnits="userSpaceOnUse" gradientTransform="matrix(1.756559,-0.0254291,0.027451,1.896221,-242.9698,-144.6942)" cx="314.9688" cy="170.3861" fx="314.9688" fy="170.3861" r="8.625591" />
    <linearGradient inkscape:collect="always" id="linearGradient7039-0">
      <stop style="stop-color:#ffffff;stop-opacity:1;" offset="0" id="stop7041-7" />
      <stop style="stop-color:#ffffff;stop-opacity:0;" offset="1" id="stop7043-3" />
    </linearGradient>
    <radialGradient r="8.625591" fy="170.3861" fx="314.9688" cy="170.3861" cx="314.9688" gradientTransform="matrix(1.756559,-0.0254291,0.027451,1.896221,-242.9698,-144.6942)" gradientUnits="userSpaceOnUse" id="radialGradient7921" xlink:href="#linearGradient7039-0" inkscape:collect="always" />
  </defs>
  <sodipodi:namedview id="base" pagecolor="#13ff3e" bordercolor="#666666" borderopacity="1.0" inkscape:pageopacity="0.5176471" inkscape:pageshadow="2" inkscape:zoom="1.810193" inkscape:cx="12.86398" inkscape:cy="47.08676" inkscape:document-units="px" inkscape:current-layer="layer1" showgrid="true" fit-margin-top="0" fit-margin-left="0" fit-margin-right="0" fit-margin-bottom="0" inkscape:window-width="1600" inkscape:window-height="878" inkscape:window-x="-8" inkscape:window-y="-8" inkscape:window-maximized="1" objecttolerance="10000" guidetolerance="10000" />
  <metadata id="metadata1487">
    <rdf:RDF>
      <cc:Work rdf:about="">
        <dc:format>image/svg+xml</dc:format>
        <dc:type rdf:resource="http://purl.org/dc/dcmitype/StillImage" />
        <dc:title></dc:title>
      </cc:Work>
    </rdf:RDF>
  </metadata>
  <g inkscape:label="Layer 1" inkscape:groupmode="layer" id="layer1" transform="translate(-269.5819,-493.088)">
    <g id="g6984" transform="translate(147.0876,-8.596488)">
      <g id="g7091" transform="matrix(5.890031,0,0,5.890031,-1670.931,-489.3384)" style="display:inline;enable-background:new">
        <g transform="translate(0.4377325,0.4775263)" id="g7093" style="opacity:0.635468">
          <path transform="matrix(0.8322444,0,0,0.8322444,52.68053,31.15891)" d="M 320.9999,185.2188 C 320.9999,186.5132 317.8799,187.5625 314.0312,187.5625 310.1825,187.5625 307.0624,186.5132 307.0624,185.2188 307.0624,183.9244 310.1825,182.875 314.0312,182.875 317.8799,182.875 320.9999,183.9244 320.9999,185.2188 z" sodipodi:ry="2.34375" sodipodi:rx="6.96875" sodipodi:cy="185.2188" sodipodi:cx="314.0312" id="path7095" style="fill:#000000;fill-opacity:1;fill-rule:nonzero;stroke:none;stroke-width:1;marker:none;visibility:visible;display:inline;overflow:visible;filter:url(#filter6552-1);enable-background:accumulate" sodipodi:type="arc" />
          <path sodipodi:type="arc" style="fill:url(#radialGradient7754);fill-opacity:1;fill-rule:nonzero;stroke:none;stroke-width:1;marker:none;visibility:visible;display:inline;overflow:visible;filter:url(#filter5677-1);enable-background:accumulate" id="path7097" sodipodi:cx="314.0312" sodipodi:cy="185.2188" sodipodi:rx="6.96875" sodipodi:ry="2.34375" d="M 320.9999,185.2188 C 320.9999,186.5132 317.8799,187.5625 314.0312,187.5625 310.1825,187.5625 307.0624,186.5132 307.0624,185.2188 307.0624,183.9244 310.1825,182.875 314.0312,182.875 317.8799,182.875 320.9999,183.9244 320.9999,185.2188 z" transform="matrix(1.24,0,0,1.24,-75.3675,-44.49637)" />
        </g>
        <path transform="matrix(1.053022,0,0,1.05069,-17.2966,-8.676543)" sodipodi:type="arc" style="fill:url(#radialGradient7756);fill-opacity:1;fill-rule:nonzero;stroke:url(#linearGradient7758);stroke-width:0.6053134;stroke-linecap:round;stroke-linejoin:round;stroke-miterlimit:4;stroke-opacity:1;stroke-dasharray:none;stroke-dashoffset:0;marker:none;visibility:visible;display:inline;overflow:visible;enable-background:accumulate" id="path7099" sodipodi:cx="314.9688" sodipodi:cy="177.8438" sodipodi:rx="8.53125" sodipodi:ry="8.53125" d="M 323.5001,177.8438 C 323.5001,182.5555 319.6805,186.375 314.9688,186.375 310.2571,186.375 306.4376,182.5555 306.4376,177.8438 306.4376,173.1321 310.2571,169.3125 314.9688,169.3125 319.6805,169.3125 323.5001,173.1321 323.5001,177.8438 z" />
        <path sodipodi:type="arc" style="fill:#fcffcd;fill-opacity:1;fill-rule:nonzero;stroke:none;stroke-width:1;marker:none;visibility:visible;display:inline;overflow:visible;filter:url(#filter5832-8);enable-background:accumulate" id="path7101" sodipodi:cx="314.5" sodipodi:cy="175.375" sodipodi:rx="2.1875" sodipodi:ry="2.1875" d="M 316.6875,175.375 C 316.6875,176.5831 315.7081,177.5625 314.5,177.5625 313.2919,177.5625 312.3125,176.5831 312.3125,175.375 312.3125,174.1669 313.2919,173.1875 314.5,173.1875 315.7081,173.1875 316.6875,174.1669 316.6875,175.375 z" transform="matrix(1.4,0,0,1.4,-125.7998,-72.34704)" />
        <path inkscape:connector-curvature="0" style="opacity:0.3990148;fill:url(#radialGradient7760);fill-opacity:1;fill-rule:evenodd;stroke:none;filter:url(#filter6049-7)" d="M 58.21875,144.1875 C 56.61959,271.1507 224.4504,267.2352 222.1562,154.4062 219.9885,261.5024 60.6032,264.8645 58.25,144.1875 L 58.21875,144.1875 z" transform="matrix(0.0949941,0,0,0.0875215,301.0918,165.8504)" id="path7111" />
        <path inkscape:connector-curvature="0" style="fill:url(#radialGradient7762);fill-opacity:1;fill-rule:nonzero;stroke:none;stroke-width:0.0846138;marker:none;visibility:visible;display:inline;overflow:visible;filter:url(#filter6365-7);enable-background:accumulate" d="M 314.0939,169.6314 C 310.4307,169.6314 307.4562,171.6697 307.4562,174.1799 307.4562,174.6324 307.5549,175.0691 307.7348,175.4817 308.5524,173.6051 311.0907,172.235 314.0939,172.235 317.0972,172.235 319.6356,173.6051 320.4531,175.4817 320.633,175.0691 320.7294,174.6324 320.7294,174.1799 320.7294,171.6697 317.7573,169.6314 314.0939,169.6314 z" id="path7123" transform="matrix(0.8944984,0,0,0.9143922,33.57504,14.99931)" />
        <g id="g7135" transform="matrix(1.977991,0,0,2.44199,-306.6388,-261.4163)" style="opacity:0.2463054" />
        <path inkscape:href="#path6824" transform="matrix(0.9881654,0,0,0.9881654,4.134715,2.165056)" d="M 313.9375,169.4688 C 309.1441,169.4688 305.2812,173.3423 305.2812,178.125 305.2812,182.9077 309.1441,186.7812 313.9375,186.7812 318.7309,186.7812 322.625,182.9072 322.625,178.125 322.625,173.3428 318.7309,169.4688 313.9375,169.4688 z" id="path7153" style="fill:none;stroke:url(#radialGradient7921);stroke-width:0.6443272;stroke-linecap:round;stroke-linejoin:round;stroke-miterlimit:4;stroke-opacity:1;stroke-dasharray:none;stroke-dashoffset:0;marker:none;visibility:visible;display:inline;overflow:visible;enable-background:accumulate" xlink:href="#path6824" inkscape:original="M 313.9375 169.3438 C 309.08 169.3438 305.1562 173.2782 305.1562 178.125 C 305.1562 182.9718 309.08 186.9062 313.9375 186.9062 C 318.795 186.9062 322.75 182.9718 322.75 178.125 C 322.75 173.2782 318.795 169.3438 313.9375 169.3438 z " inkscape:radius="-0.1187437" sodipodi:type="inkscape:offset" />
      </g>
      <g id="g7352" style="display:inline;enable-background:new" transform="matrix(6.525263,0,0,6.525263,-1867.74,-598.3748)">
        <path inkscape:connector-curvature="0" sodipodi:nodetypes="cscc" transform="matrix(0.0734072,0,0,-0.1109643,300.7688,195.5481)" id="path7354" d="M 126.5,187 C 126.5,187 128.7108,145.6532 142,145.5 155.7313,145.3417 159,188 159,188 143.6928,166.1921 135.3545,177.835 126.5,187 z" style="opacity:0.4975369;fill:url(#radialGradient11803-7);fill-opacity:1;fill-rule:evenodd;stroke:none;display:inline;filter:url(#filter12325-7);enable-background:new" />
        <path inkscape:connector-curvature="0" style="opacity:0.4975369;fill:url(#radialGradient11805-0);fill-opacity:1;fill-rule:evenodd;stroke:none;display:inline;filter:url(#filter12325-7);enable-background:new" d="M 126.5,187 C 126.5,187 128.7108,145.6532 142,145.5 155.7313,145.3417 159,188 159,188 140.2477,162.3346 133.1117,177.7333 126.5,187 z" id="path7356" transform="matrix(0.0734072,0,0,-0.1109643,306.7253,195.4384)" sodipodi:nodetypes="cscc" />
        <g style="display:inline;enable-background:new" id="g7358" transform="matrix(0.6238527,0,0,-0.6238527,118.0211,292.91)">
          <path inkscape:connector-curvature="0" transform="matrix(1.224234,0,0,1.224234,-70.28711,-44.56795)" sodipodi:nodetypes="ccc" id="path7360" d="M 308.089,178.5449 C 312.9084,183.2735 316.5049,181.626 319.7766,178.5449 316.0735,183.845 312.1825,184.0384 308.089,178.5449 z" style="fill:url(#radialGradient11807-0);fill-opacity:1;fill-rule:evenodd;stroke:none;filter:url(#filter7264-9)" />
          <path inkscape:connector-curvature="0" sodipodi:nodetypes="ccc" id="path7362" d="M 306.803,177.6531 C 313.1398,181.9847 317.2331,180.6844 321.1113,177.6531 316.6926,182.7164 311.9202,182.8958 306.803,177.6531 z" style="fill:url(#radialGradient11809-2);fill-opacity:1;fill-rule:evenodd;stroke:none" />
          <path inkscape:connector-curvature="0" style="opacity:0.5467981;fill:url(#radialGradient11811-3);fill-opacity:1;fill-rule:evenodd;stroke:none" d="M 306.803,177.0158 C 312.6949,180.7626 317.3371,179.8553 321.5732,177.0158 316.7108,181.4869 311.7901,181.687 306.803,177.0158 z" id="path7364" sodipodi:nodetypes="ccc" />
        </g>
        <g transform="matrix(1.330573,0,0,1.330573,-103.4097,-59.11664)" id="g7366" style="display:inline;enable-background:new">
          <g style="display:inline;enable-background:new" id="g7368" transform="matrix(0.0875215,0,0,0.0875215,300.6514,165.1542)">
            <path inkscape:connector-curvature="0" id="path7370" transform="translate(5.999912,-0.4999816)" d="M 164.1562,99.9375 C 162.2288,103.605 161,109.2176 161,115.5 161,126.54 164.808,135.5 169.5,135.5 172.8413,135.5 175.7362,130.9467 177.125,124.3438 174.2545,120.6842 171.461,116.3881 169,111.5625 166.9855,107.6123 165.3804,103.6865 164.1562,99.9375 z" style="fill:url(#radialGradient11813-1);fill-opacity:1;fill-rule:nonzero;stroke:none;stroke-width:1;marker:none;visibility:visible;display:inline;overflow:visible;enable-background:accumulate" />
          </g>
          <path inkscape:connector-curvature="0" style="fill:url(#radialGradient11815-0);fill-opacity:1;fill-rule:evenodd;stroke:none" d="M 315.2456,176.2913 C 315.721,177.4532 316.2716,177.5127 316.7335,176.3569 316.3014,177.2168 315.8231,177.4381 315.2456,176.2913 z" id="path7372" sodipodi:nodetypes="ccc" />
          <path inkscape:connector-curvature="0" style="opacity:0.7641026;fill:url(#radialGradient11817-9);fill-opacity:1;fill-rule:evenodd;stroke:none;filter:url(#filter6479-7)" d="M 165.125,100 180.375,126.375 C 192.2992,104.713 185.9062,97.01987 165.125,100 z" id="path7374" transform="matrix(0.0875215,0,0,0.0875215,301.1328,165.1323)" sodipodi:nodetypes="ccc" />
        </g>
        <g id="g7376" transform="matrix(-1.330573,0,0,1.330573,731.6267,-59.11664)" style="display:inline;enable-background:new">
          <g transform="matrix(0.0875215,0,0,0.0875215,300.6514,165.1542)" id="g7378" style="display:inline;enable-background:new">
            <path inkscape:connector-curvature="0" style="fill:url(#radialGradient11819-9);fill-opacity:1;fill-rule:nonzero;stroke:none;stroke-width:1;marker:none;visibility:visible;display:inline;overflow:visible;enable-background:accumulate" d="M 164.1562,99.9375 C 162.2288,103.605 161,109.2176 161,115.5 161,126.54 164.808,135.5 169.5,135.5 172.8413,135.5 175.7362,130.9467 177.125,124.3438 174.2545,120.6842 171.461,116.3881 169,111.5625 166.9855,107.6123 165.3804,103.6865 164.1562,99.9375 z" transform="translate(5.999912,-0.4999816)" id="path7380" />
          </g>
          <path inkscape:connector-curvature="0" sodipodi:nodetypes="ccc" id="path7382" d="M 315.2456,176.2913 C 315.721,177.4532 316.2716,177.5127 316.7335,176.3569 316.3014,177.2168 315.8231,177.4381 315.2456,176.2913 z" style="fill:url(#radialGradient11821-8);fill-opacity:1;fill-rule:evenodd;stroke:none" />
          <path inkscape:connector-curvature="0" sodipodi:nodetypes="ccc" transform="matrix(0.0875215,0,0,0.0875215,301.1328,165.1323)" id="path7384" d="M 165.125,100 180.375,126.375 C 192.2992,104.713 185.9062,97.01987 165.125,100 z" style="opacity:0.7641026;fill:url(#radialGradient11823-5);fill-opacity:1;fill-rule:evenodd;stroke:none;filter:url(#filter6479-7)" />
        </g>
        <path transform="matrix(0.6454795,0,0,1.328809,105.3574,97.74424)" d="M 328.9814,58.50094 C 328.9814,58.78163 328.5659,59.00917 328.0533,59.00917 327.5408,59.00917 327.1252,58.78163 327.1252,58.50094 327.1252,58.22025 327.5408,57.99271 328.0533,57.99271 328.5659,57.99271 328.9814,58.22025 328.9814,58.50094 z" sodipodi:ry="0.508233" sodipodi:rx="0.9280776" sodipodi:cy="58.50094" sodipodi:cx="328.0533" id="path7386" style="opacity:0.6307693;fill:url(#linearGradient11825-5);fill-opacity:1;fill-rule:nonzero;stroke:none;stroke-width:1;marker:none;visibility:visible;display:inline;overflow:visible;enable-background:accumulate" sodipodi:type="arc" />
        <path sodipodi:type="arc" style="opacity:0.6307693;fill:url(#linearGradient12578);fill-opacity:1;fill-rule:nonzero;stroke:none;stroke-width:1;marker:none;visibility:visible;display:inline;overflow:visible;enable-background:accumulate" id="path7388" sodipodi:cx="328.0533" sodipodi:cy="58.50094" sodipodi:rx="0.9280776" sodipodi:ry="0.508233" d="M 328.9814,58.50094 C 328.9814,58.78163 328.5659,59.00917 328.0533,59.00917 327.5408,59.00917 327.1252,58.78163 327.1252,58.50094 327.1252,58.22025 327.5408,57.99271 328.0533,57.99271 328.5659,57.99271 328.9814,58.22025 328.9814,58.50094 z" transform="matrix(0.6454795,0,0,1.328809,99.40307,97.74424)" />
      </g>
    </g>
  </g>
</svg>
